{
	"asset":{
		"generator":"Khronos glTF Blender I/O v4.3.47",
		"version":"2.0"
	},
	"scene":0,
	"scenes":[
		{
			"name":"Scene",
			"nodes":[
				0,
				1,
				2
			]
		}
	],
	"nodes":[
		{
			"mesh":0,
			"name":"Head"
		},
		{
			"mesh":1,
			"name":"Hair"
		},
		{
			"mesh":2,
			"name":"Pins"
		}
	],
	"materials":[
		{
			"doubleSided":true,
			"name":"Ghost",
			"pbrMetallicRoughness":{
				"baseColorTexture":{
					"index":0
				},
				"metallicFactor":0
			}
		}
	],
	"meshes":[
		{
			"extras":{
				"targetNames":[
					"Angry"
				]
			},
			"name":"Cube.001",
			"primitives":[
				{
					"attributes":{
						"POSITION":0,
						"NORMAL":1,
						"TEXCOORD_0":2
					},
					"indices":3,
					"material":0,
					"targets":[
						{
							"POSITION":4,
							"NORMAL":5
						}
					]
				}
			],
			"weights":[
				0
			]
		},
		{
			"name":"Cube.002",
			"primitives":[
				{
					"attributes":{
						"POSITION":6,
						"NORMAL":7,
						"TEXCOORD_0":8
					},
					"indices":9,
					"material":0
				}
			]
		},
		{
			"name":"Cube.004",
			"primitives":[
				{
					"attributes":{
						"POSITION":10,
						"NORMAL":11,
						"TEXCOORD_0":12
					},
					"indices":13,
					"material":0
				}
			]
		}
	],
	"textures":[
		{
			"sampler":0,
			"source":0
		}
	],
	"images":[
		{
			"mimeType":"image/png",
			"name":"ghost_diffuse",
			"uri":"ghost_diffuse.png"
		}
	],
	"accessors":[
		{
			"bufferView":0,
			"componentType":5126,
			"count":403,
			"max":[
				0.5761600732803345,
				1.0569331645965576,
				0.7615311741828918
			],
			"min":[
				-0.5778785347938538,
				-0.6864709258079529,
				-0.8536092638969421
			],
			"type":"VEC3"
		},
		{
			"bufferView":1,
			"componentType":5126,
			"count":403,
			"type":"VEC3"
		},
		{
			"bufferView":2,
			"componentType":5126,
			"count":403,
			"type":"VEC2"
		},
		{
			"bufferView":3,
			"componentType":5123,
			"count":1938,
			"type":"SCALAR"
		},
		{
			"componentType":5126,
			"count":403,
			"max":[
				0.05753748118877411,
				0.049080997705459595,
				0.26423850655555725
			],
			"min":[
				-0.057537347078323364,
				-0.5487775802612305,
				-0.015415549278259277
			],
			"sparse":{
				"count":205,
				"indices":{
					"bufferView":4,
					"componentType":5123
				},
				"values":{
					"bufferView":5
				}
			},
			"type":"VEC3"
		},
		{
			"bufferView":6,
			"componentType":5126,
			"count":403,
			"type":"VEC3"
		},
		{
			"bufferView":7,
			"componentType":5126,
			"count":248,
			"max":[
				0.8853163123130798,
				1.411842942237854,
				0.9393671154975891
			],
			"min":[
				-0.8849039673805237,
				-0.39550983905792236,
				-0.8408439755439758
			],
			"type":"VEC3"
		},
		{
			"bufferView":8,
			"componentType":5126,
			"count":248,
			"type":"VEC3"
		},
		{
			"bufferView":9,
			"componentType":5126,
			"count":248,
			"type":"VEC2"
		},
		{
			"bufferView":10,
			"componentType":5123,
			"count":1356,
			"type":"SCALAR"
		},
		{
			"bufferView":11,
			"componentType":5126,
			"count":112,
			"max":[
				0.37449386715888977,
				1.1044015884399414,
				0.9739574790000916
			],
			"min":[
				-0.5748141407966614,
				-0.549153208732605,
				0.3871820867061615
			],
			"type":"VEC3"
		},
		{
			"bufferView":12,
			"componentType":5126,
			"count":112,
			"type":"VEC3"
		},
		{
			"bufferView":13,
			"componentType":5126,
			"count":112,
			"type":"VEC2"
		},
		{
			"bufferView":14,
			"componentType":5123,
			"count":168,
			"type":"SCALAR"
		}
	],
	"bufferViews":[
		{
			"buffer":0,
			"byteLength":4836,
			"byteOffset":0,
			"target":34962
		},
		{
			"buffer":0,
			"byteLength":4836,
			"byteOffset":4836,
			"target":34962
		},
		{
			"buffer":0,
			"byteLength":3224,
			"byteOffset":9672,
			"target":34962
		},
		{
			"buffer":0,
			"byteLength":3876,
			"byteOffset":12896,
			"target":34963
		},
		{
			"buffer":0,
			"byteLength":410,
			"byteOffset":16772
		},
		{
			"buffer":0,
			"byteLength":2460,
			"byteOffset":17184
		},
		{
			"buffer":0,
			"byteLength":4836,
			"byteOffset":19644,
			"target":34962
		},
		{
			"buffer":0,
			"byteLength":2976,
			"byteOffset":24480,
			"target":34962
		},
		{
			"buffer":0,
			"byteLength":2976,
			"byteOffset":27456,
			"target":34962
		},
		{
			"buffer":0,
			"byteLength":1984,
			"byteOffset":30432,
			"target":34962
		},
		{
			"buffer":0,
			"byteLength":2712,
			"byteOffset":32416,
			"target":34963
		},
		{
			"buffer":0,
			"byteLength":1344,
			"byteOffset":35128,
			"target":34962
		},
		{
			"buffer":0,
			"byteLength":1344,
			"byteOffset":36472,
			"target":34962
		},
		{
			"buffer":0,
			"byteLength":896,
			"byteOffset":37816,
			"target":34962
		},
		{
			"buffer":0,
			"byteLength":336,
			"byteOffset":38712,
			"target":34963
		}
	],
	"samplers":[
		{
			"magFilter":9729,
			"minFilter":9987
		}
	],
	"buffers":[
		{
			"byteLength":39048,
			"uri":"ghosthead2.bin"
		}
	]
}
