{
	"asset":{
		"generator":"Khronos glTF Blender I/O v4.3.47",
		"version":"2.0"
	},
	"scene":0,
	"scenes":[
		{
			"name":"Scene",
			"nodes":[
				0,
				1,
				2
			]
		}
	],
	"nodes":[
		{
			"mesh":0,
			"name":"Head"
		},
		{
			"mesh":1,
			"name":"Hair",
			"translation":[
				0,
				0.5969844460487366,
				0.13672888278961182
			]
		},
		{
			"mesh":2,
			"name":"Pins",
			"rotation":[
				-0.15759974718093872,
				0.008552907966077328,
				0.1898355931043625,
				0.9690467715263367
			],
			"translation":[
				-0.2343057096004486,
				0.5663555264472961,
				-0.8587979674339294
			]
		}
	],
	"materials":[
		{
			"doubleSided":true,
			"name":"Ghost",
			"pbrMetallicRoughness":{
				"baseColorTexture":{
					"index":0
				},
				"metallicFactor":0
			}
		}
	],
	"meshes":[
		{
			"name":"Cube.001",
			"primitives":[
				{
					"attributes":{
						"POSITION":0,
						"NORMAL":1,
						"TEXCOORD_0":2
					},
					"indices":3,
					"material":0
				}
			]
		},
		{
			"name":"Cube.002",
			"primitives":[
				{
					"attributes":{
						"POSITION":4,
						"NORMAL":5,
						"TEXCOORD_0":6
					},
					"indices":7,
					"material":0
				}
			]
		},
		{
			"name":"Cube.004",
			"primitives":[
				{
					"attributes":{
						"POSITION":8,
						"NORMAL":9,
						"TEXCOORD_0":10
					},
					"indices":11
				}
			]
		}
	],
	"textures":[
		{
			"sampler":0,
			"source":0
		}
	],
	"images":[
		{
			"mimeType":"image/png",
			"name":"ghost_diffuse",
			"uri":"ghost_diffuse.png"
		}
	],
	"accessors":[
		{
			"bufferView":0,
			"componentType":5126,
			"count":362,
			"max":[
				0.5770192742347717,
				0.8075395822525024,
				0.8471811413764954
			],
			"min":[
				-0.5770192742347717,
				-0.9358644485473633,
				-0.7679592370986938
			],
			"type":"VEC3"
		},
		{
			"bufferView":1,
			"componentType":5126,
			"count":362,
			"type":"VEC3"
		},
		{
			"bufferView":2,
			"componentType":5126,
			"count":362,
			"type":"VEC2"
		},
		{
			"bufferView":3,
			"componentType":5123,
			"count":1740,
			"type":"SCALAR"
		},
		{
			"bufferView":4,
			"componentType":5126,
			"count":248,
			"max":[
				0.8840448260307312,
				0.565464973449707,
				0.6976869106292725
			],
			"min":[
				-0.8861754536628723,
				-1.2418878078460693,
				-1.082524061203003
			],
			"type":"VEC3"
		},
		{
			"bufferView":5,
			"componentType":5126,
			"count":248,
			"type":"VEC3"
		},
		{
			"bufferView":6,
			"componentType":5126,
			"count":248,
			"type":"VEC2"
		},
		{
			"bufferView":7,
			"componentType":5123,
			"count":1356,
			"type":"SCALAR"
		},
		{
			"bufferView":8,
			"componentType":5126,
			"count":112,
			"max":[
				0.7951647043228149,
				0.30716925859451294,
				0.034076936542987823
			],
			"min":[
				-0.5959055423736572,
				-1.4616620540618896,
				-0.11995471268892288
			],
			"type":"VEC3"
		},
		{
			"bufferView":9,
			"componentType":5126,
			"count":112,
			"type":"VEC3"
		},
		{
			"bufferView":10,
			"componentType":5126,
			"count":112,
			"type":"VEC2"
		},
		{
			"bufferView":11,
			"componentType":5123,
			"count":168,
			"type":"SCALAR"
		}
	],
	"bufferViews":[
		{
			"buffer":0,
			"byteLength":4344,
			"byteOffset":0,
			"target":34962
		},
		{
			"buffer":0,
			"byteLength":4344,
			"byteOffset":4344,
			"target":34962
		},
		{
			"buffer":0,
			"byteLength":2896,
			"byteOffset":8688,
			"target":34962
		},
		{
			"buffer":0,
			"byteLength":3480,
			"byteOffset":11584,
			"target":34963
		},
		{
			"buffer":0,
			"byteLength":2976,
			"byteOffset":15064,
			"target":34962
		},
		{
			"buffer":0,
			"byteLength":2976,
			"byteOffset":18040,
			"target":34962
		},
		{
			"buffer":0,
			"byteLength":1984,
			"byteOffset":21016,
			"target":34962
		},
		{
			"buffer":0,
			"byteLength":2712,
			"byteOffset":23000,
			"target":34963
		},
		{
			"buffer":0,
			"byteLength":1344,
			"byteOffset":25712,
			"target":34962
		},
		{
			"buffer":0,
			"byteLength":1344,
			"byteOffset":27056,
			"target":34962
		},
		{
			"buffer":0,
			"byteLength":896,
			"byteOffset":28400,
			"target":34962
		},
		{
			"buffer":0,
			"byteLength":336,
			"byteOffset":29296,
			"target":34963
		}
	],
	"samplers":[
		{
			"magFilter":9729,
			"minFilter":9987
		}
	],
	"buffers":[
		{
			"byteLength":29632,
			"uri":"ghosthead2.bin"
		}
	]
}
